<svg width="24" height="25" fill="none" xmlns="http://www.w3.org/2000/svg"><g clip-path="url(#a)"><path d="M22.125.5H1.875C.839.5 0 1.34 0 2.375v20.25C0 23.661.84 24.5 1.875 24.5h20.25c1.036 0 1.875-.84 1.875-1.875V2.375C24 1.339 23.16.5 22.125.5Zm-7.477 9.966-.136 1.795H12.67v6.234h-2.325v-6.234H9.103v-1.795h1.242V9.26c0-.53.014-1.35.399-1.861.408-.54.965-.905 1.926-.905 1.566 0 2.222.225 2.222.225l-.31 1.838s-.515-.15-.998-.15c-.482 0-.914.173-.914.656v1.402h1.978Z" fill="#fff"/></g><defs><clipPath id="a"><path fill="#fff" transform="translate(0 .5)" d="M0 0h24v24H0z"/></clipPath></defs></svg>