<svg width="24" height="25" fill="none" xmlns="http://www.w3.org/2000/svg"><g clip-path="url(#a)"><path d="M20.4.5H3.6A3.6 3.6 0 0 0 0 4.1v16.8a3.6 3.6 0 0 0 3.6 3.6h16.8a3.6 3.6 0 0 0 3.6-3.6V4.1A3.6 3.6 0 0 0 20.4.5Z" fill="#fff"/><path d="M15.703 23.89c.656 0 .563.798.563.798H7.734s-.093-.797.563-.797c.61 0 .75-.282.75-.563L9 20.984c-3.328.75-4.031-1.312-4.031-1.312-.563-1.406-1.313-1.734-1.313-1.734-1.125-.75.047-.75.047-.75 1.219.093 1.875 1.218 1.875 1.218 1.031 1.828 2.766 1.313 3.469 1.032.094-.797.422-1.313.75-1.641-2.672-.281-5.438-1.313-5.438-5.906 0-1.313.47-2.39 1.22-3.235-.141-.28-.516-1.5.14-3.14 0 0 .984-.328 3.281 1.218a10.878 10.878 0 0 1 6 0c2.297-1.546 3.281-1.218 3.281-1.218.657 1.64.282 2.86.14 3.14a4.749 4.749 0 0 1 1.22 3.235c0 4.593-2.813 5.625-5.485 5.906.469.375.844 1.125.844 2.25l-.047 3.281c0 .281.14.563.75.563Z" fill="#181818"/></g><defs><clipPath id="a"><path fill="#fff" transform="translate(0 .5)" d="M0 0h24v24H0z"/></clipPath></defs></svg>