<svg width="24" height="25" fill="none" xmlns="http://www.w3.org/2000/svg"><path d="M23.99 3A2.771 2.771 0 0 0 21.218.5H2.789c-.168 0-.34.012-.502.044C.927.805.002 1.931.002 3.315v9.188l.001 9.17c0 .155.012.311.031.467.178 1.33 1.359 2.36 2.702 2.36h18.532c.106 0 .21-.007.316-.018a2.758 2.758 0 0 0 2.412-2.711C24 15.592 24 9.415 23.997 3.237c.002-.08.003-.159-.008-.238ZM12 7.885c2.55 0 4.614 2.06 4.617 4.613a4.608 4.608 0 0 1-4.609 4.617 4.613 4.613 0 0 1-4.62-4.62A4.616 4.616 0 0 1 12 7.886Zm9.236 2.895v9.945c0 .624-.379 1.008-1.003 1.008H3.744c-.578-.001-.97-.395-.97-.972-.002-3.33 0-6.66 0-9.992v-.107h2.082c-.466 1.88-.253 3.68.668 5.381a7.247 7.247 0 0 0 2.867 2.902 7.37 7.37 0 0 0 7.765-.34 7.267 7.267 0 0 0 2.757-3.5c.547-1.45.618-2.932.236-4.446h2.086c.002.041.002.08.002.12Zm0-3.84c-.001.546-.403.944-.95.945h-1.359l-1.368-.001c-.526 0-.935-.393-.938-.918-.006-.925-.006-1.85 0-2.774.003-.532.41-.921.945-.922h2.728a.92.92 0 0 1 .943.943V6.94Z" fill="#fff"/></svg>