<svg width="24" height="25" fill="none" xmlns="http://www.w3.org/2000/svg"><g clip-path="url(#a)"><path d="M22.125.5H1.875C.839.5 0 1.34 0 2.375v20.25C0 23.661.84 24.5 1.875 24.5h20.25c1.036 0 1.875-.84 1.875-1.875V2.375C24 1.339 23.16.5 22.125.5ZM8.644 17.52h-2.34v-7.486h2.34v7.486ZM7.41 9.097h-.019c-.848 0-1.397-.572-1.397-1.299 0-.74.567-1.298 1.43-1.298.862 0 1.392.558 1.41 1.298.006.722-.543 1.299-1.424 1.299ZM18 17.52h-2.653v-3.872c0-1.012-.413-1.706-1.327-1.706-.698 0-1.087.469-1.265.919-.066.16-.057.384-.057.614v4.045h-2.63s.034-6.862 0-7.486h2.63v1.177c.155-.516.994-1.247 2.335-1.247 1.664 0 2.967 1.078 2.967 3.394v4.162Z" fill="#fff"/></g><defs><clipPath id="a"><path fill="#fff" transform="translate(0 .5)" d="M0 0h24v24H0z"/></clipPath></defs></svg>